<?xml version="1.0" encoding="UTF-8" standalone="no"?>
<svg
   inkscape:export-ydpi="360"
   inkscape:export-xdpi="360"
   inkscape:export-filename="C:\Users\iv16sl\Dropbox\IV16SL\avatarwechatsquarever2.png"
   sodipodi:docname="logo.svg"
   inkscape:version="1.1.1 (3bf5ae0d25, 2021-09-20)"
   id="Star of life"
   height="128"
   width="128"
   version="1.0"
   xmlns:inkscape="http://www.inkscape.org/namespaces/inkscape"
   xmlns:sodipodi="http://sodipodi.sourceforge.net/DTD/sodipodi-0.dtd"
   xmlns="http://www.w3.org/2000/svg"
   xmlns:svg="http://www.w3.org/2000/svg"
   xmlns:rdf="http://www.w3.org/1999/02/22-rdf-syntax-ns#"
   xmlns:cc="http://creativecommons.org/ns#"
   xmlns:dc="http://purl.org/dc/elements/1.1/">
  <metadata
     id="metadata14">
    <rdf:RDF>
      <cc:Work
         rdf:about="">
        <dc:format>image/svg+xml</dc:format>
        <dc:type
           rdf:resource="http://purl.org/dc/dcmitype/StillImage" />
      </cc:Work>
    </rdf:RDF>
  </metadata>
  <sodipodi:namedview
     inkscape:document-rotation="0"
     inkscape:guide-bbox="true"
     showguides="true"
     inkscape:current-layer="text4162"
     inkscape:window-maximized="0"
     inkscape:window-y="0"
     inkscape:window-x="96"
     inkscape:cy="78.488853"
     inkscape:cx="6.0104077"
     inkscape:zoom="2.8284271"
     fit-margin-bottom="0"
     fit-margin-right="0"
     fit-margin-left="0"
     fit-margin-top="0"
     showgrid="false"
     id="namedview12"
     inkscape:window-height="1020"
     inkscape:window-width="1590"
     inkscape:pageshadow="2"
     inkscape:pageopacity="0"
     guidetolerance="10"
     gridtolerance="10"
     objecttolerance="10"
     borderopacity="1"
     bordercolor="#666666"
     pagecolor="#ffffff"
     inkscape:pagecheckerboard="0">
    <sodipodi:guide
       inkscape:locked="false"
       id="guide5260"
       orientation="1,0"
       position="84.000001,66.101696" />
  </sodipodi:namedview>
  <defs
     id="defs2886" />
  <g
     transform="translate(0.77966134,0.40678337)"
     id="g4765">
    <g
       id="g4728"
       transform="matrix(1.0105747,0,0,1.0105747,7.6452728,14.314051)">
      <g
         aria-label="16"
         id="text4162"
         style="line-height:0%;letter-spacing:0px;word-spacing:0px;fill:#880088;fill-opacity:0;stroke:#00000e;stroke-width:3.95814">
        <rect
           style="fill:#000000;fill-opacity:1;stroke:none;stroke-width:1.97907"
           id="rect852"
           width="126.6606"
           height="126.6606"
           x="-8.3367739"
           y="-14.566793" />
        <g
           id="g8509">
          <path
             d="m 13.859537,87.797711 c 0,3.955764 3.390655,3.955764 3.390655,0 L 18.945519,9.812648 c 0,-4.5208732 -6.78131,-4.5208732 -6.78131,0 l 1.695328,76.289735 z"
             id="rod"
             style="fill:#000000;fill-opacity:1;fill-rule:evenodd;stroke:#ffffff;stroke-width:1.13005;stroke-miterlimit:4;stroke-dasharray:none;stroke-opacity:0.175889"
             inkscape:connector-curvature="0" />
          <path
             id="body"
             style="fill:#ffffff;fill-opacity:1;fill-rule:evenodd;stroke:#ffffff;stroke-width:1.14217;stroke-miterlimit:4;stroke-dasharray:none;stroke-opacity:1"
             d="m 22.335938,30.158203 c -2.872296,-0.04015 -6.36442,1.545459 -7.328126,4.757813 -2.28434,5.139764 8.8e-5,13.136398 5.710938,17.705078 v -7.423828 l -1.714844,-2.855469 c -3.997595,-7.424105 7.423828,-4.569992 7.423828,-9.138672 0,-1.998797 -1.857789,-3.013691 -4.091796,-3.044922 z m 2.490238,2.617189 c -0.682759,1.637085 -2.280101,1.819839 -3.373477,0.573375 -0.443698,-2.17582 2.829589,-2.262385 3.373477,-0.573375 z m 2.744136,16.417967 v 6.853516 c 0,6.281935 -9.707031,7.995772 -9.707031,12.564453 0,1.713255 0.570356,5.138308 3.425781,6.851563 0,-6.281935 5.139897,-6.852787 8.566407,-10.279297 3.997595,-3.997595 3.996779,-10.850469 -2.285157,-15.990235 z M 27,73.179688 c 0,3.997595 -4.3e-5,7.424644 -2.855469,9.708984 -4.56868,2.855425 -7.424921,7.994227 -2.285156,13.705078 0,-4.56868 0.0012,-6.853152 3.427734,-8.566406 C 29.284704,85.743003 32.710851,78.319452 27,73.179688 Z m -0.572266,22.84375 c 0,3.42651 -0.570721,5.710982 -1.71289,8.566402 3.426509,0 5.710485,-6.282063 1.71289,-8.566402 z"
             sodipodi:nodetypes="sccccssccccsscsccccccccc"
             transform="matrix(0.98953595,0,0,0.98953595,-8.3367752,-14.566795)" />
          <path
             d="m -0.78929627,97.929443 z m 0,0 V -0.40243436 H 31.218576 V 97.929443 Z"
             style="font-weight:900;font-size:153.884px;line-height:1.25;font-family:Pricedown;-inkscape-font-specification:'Pricedown Heavy';stroke:#ffffff;stroke-opacity:1"
             id="path8480" />
          <path
             d="m 54.916455,97.929443 q -16.003937,0 -16.003937,-12.156836 V 12.06217 q 0,-12.46460436 16.003937,-12.46460436 h 39.855956 q 16.003939,0 16.003939,12.46460436 V 30.220482 H 78.768475 v -5.693708 q 0,-0.307768 -0.307768,-0.307768 h -7.232548 q -0.307768,0 -0.307768,0.307768 v 12.002952 h 23.85202 q 16.003939,0 16.003939,12.156836 v 37.086045 q 0,12.156836 -16.003939,12.156836 z m 23.85202,-38.009348 q 0,-0.307768 -0.307768,-0.307768 h -7.540316 v 13.541792 q 0,0.307768 0.307768,0.307768 h 7.232548 q 0.307768,0 0.307768,-0.307768 z"
             style="font-weight:900;font-size:153.884px;line-height:1.25;font-family:Pricedown;-inkscape-font-specification:'Pricedown Heavy';fill:#000000;fill-opacity:1;stroke:#ffffff;stroke-opacity:1"
             id="path8482" />
        </g>
      </g>
    </g>
  </g>
</svg>
